<svg xmlns="http://www.w3.org/2000/svg" xmlns:xlink="http://www.w3.org/1999/xlink" width="2658" zoomAndPan="magnify" viewBox="0 0 1993.5 1652.249995" height="2203" preserveAspectRatio="xMidYMid meet" version="1.0"><defs><g/><clipPath id="9c423eda16"><path d="M 614 0.398438 L 1045 0.398438 L 1045 855 L 614 855 Z M 614 0.398438 " clip-rule="nonzero"/></clipPath><clipPath id="9a0b9284e9"><rect x="0" width="431" y="0" height="855"/></clipPath><clipPath id="b6e8564843"><path d="M 982 0.398438 L 1457.257812 0.398438 L 1457.257812 855 L 982 855 Z M 982 0.398438 " clip-rule="nonzero"/></clipPath><clipPath id="516021814f"><rect x="0" width="476" y="0" height="855"/></clipPath><clipPath id="4c927aef94"><path d="M 0.160156 75 L 668 75 L 668 946.53125 L 0.160156 946.53125 Z M 0.160156 75 " clip-rule="nonzero"/></clipPath><clipPath id="9765e4457b"><rect x="0" width="668" y="0" height="872"/></clipPath><clipPath id="59d9f17ebe"><rect x="0" width="1458" y="0" height="947"/></clipPath></defs><g transform="matrix(1, 0, 0, 1, 268, 352)"><g clip-path="url(#59d9f17ebe)"><g clip-path="url(#9c423eda16)"><g transform="matrix(1, 0, 0, 1, 614, 0.000000000000284217)"><g clip-path="url(#9a0b9284e9)"><g fill="#574276" fill-opacity="1"><g transform="translate(0.450597, 594.313746)"><g><path d="M 375.09375 0 L 342.6875 0 L 342.6875 -244.65625 C 342.6875 -263.414062 339.5625 -281.175781 333.3125 -297.9375 C 327.0625 -314.695312 318.109375 -329.1875 306.453125 -341.40625 C 294.804688 -353.625 281.023438 -363.425781 265.109375 -370.8125 C 249.203125 -378.207031 231.867188 -381.90625 213.109375 -381.90625 C 193.796875 -381.90625 176.179688 -378.351562 160.265625 -371.25 C 144.347656 -364.144531 130.707031 -354.335938 119.34375 -341.828125 C 107.976562 -329.328125 99.171875 -314.695312 92.921875 -297.9375 C 86.671875 -281.175781 83.546875 -263.414062 83.546875 -244.65625 L 83.546875 0 L 51.140625 0 L 51.140625 -249.765625 C 51.140625 -272.503906 55.117188 -293.675781 63.078125 -313.28125 C 71.035156 -332.882812 82.117188 -350.070312 96.328125 -364.84375 C 110.535156 -379.625 127.582031 -391.273438 147.46875 -399.796875 C 167.363281 -408.328125 189.242188 -412.59375 213.109375 -412.59375 C 236.984375 -412.59375 258.863281 -408.328125 278.75 -399.796875 C 298.644531 -391.273438 315.695312 -379.484375 329.90625 -364.421875 C 344.113281 -349.367188 355.195312 -332.035156 363.15625 -312.421875 C 371.113281 -292.816406 375.09375 -271.929688 375.09375 -249.765625 Z M 375.09375 0 "/></g></g></g></g></g></g><g clip-path="url(#b6e8564843)"><g transform="matrix(1, 0, 0, 1, 982, 0.000000000000284217)"><g clip-path="url(#516021814f)"><g fill="#5c00e1" fill-opacity="1"><g transform="translate(0.0743315, 594.313746)"><g><path d="M 132.984375 -117.640625 L 112.53125 -144.921875 L 372.53125 -320.53125 C 357.75 -339.28125 339.132812 -354.195312 316.6875 -365.28125 C 294.238281 -376.363281 269.375 -381.90625 242.09375 -381.90625 C 217.09375 -381.90625 193.9375 -377.21875 172.625 -367.84375 C 151.3125 -358.46875 132.835938 -345.535156 117.203125 -329.046875 C 101.578125 -312.566406 89.21875 -293.242188 80.125 -271.078125 C 71.039062 -248.921875 66.5 -225.054688 66.5 -199.484375 C 66.5 -175.046875 71.039062 -152.023438 80.125 -130.421875 C 89.21875 -108.828125 101.722656 -90.070312 117.640625 -74.15625 C 133.554688 -58.25 152.164062 -45.609375 173.46875 -36.234375 C 194.78125 -26.859375 217.65625 -22.171875 242.09375 -22.171875 C 265.96875 -22.171875 288.414062 -26.710938 309.4375 -35.796875 C 330.46875 -44.890625 349.082031 -57.109375 365.28125 -72.453125 C 381.476562 -87.796875 394.265625 -105.835938 403.640625 -126.578125 C 413.015625 -147.328125 418.273438 -169.640625 419.421875 -193.515625 L 453.515625 -193.515625 C 452.378906 -164.523438 446.125 -137.671875 434.75 -112.953125 C 423.382812 -88.234375 408.328125 -66.921875 389.578125 -49.015625 C 370.828125 -31.117188 349.375 -17.050781 325.21875 -6.8125 C 301.0625 3.414062 275.628906 8.53125 248.921875 8.53125 C 217.097656 8.53125 187.972656 3.128906 161.546875 -7.671875 C 135.117188 -18.472656 112.242188 -33.25 92.921875 -52 C 73.597656 -70.75 58.675781 -92.910156 48.15625 -118.484375 C 37.644531 -144.066406 32.390625 -171.632812 32.390625 -201.1875 C 32.390625 -230.164062 37.644531 -257.582031 48.15625 -283.4375 C 58.675781 -309.300781 73.3125 -331.75 92.0625 -350.78125 C 110.820312 -369.820312 132.988281 -384.882812 158.5625 -395.96875 C 184.132812 -407.050781 211.976562 -412.59375 242.09375 -412.59375 C 281.3125 -412.59375 316.546875 -403.5 347.796875 -385.3125 C 379.054688 -367.125 403.78125 -343.253906 421.96875 -313.703125 Z M 132.984375 -117.640625 "/></g></g></g></g></g></g><g clip-path="url(#4c927aef94)"><g transform="matrix(1, 0, 0, 1, 0.000000000000113687, 75)"><g clip-path="url(#9765e4457b)"><g fill="#5c00e1" fill-opacity="1"><g transform="translate(0.316301, 611.157921)"><g><path d="M 635.09375 -298.359375 C 635.09375 -256.304688 627.132812 -216.664062 611.21875 -179.4375 C 595.300781 -142.21875 573.703125 -109.539062 546.421875 -81.40625 C 519.148438 -53.28125 487.039062 -30.972656 450.09375 -14.484375 C 413.15625 1.992188 373.378906 10.234375 330.765625 10.234375 C 288.140625 10.234375 248.351562 1.992188 211.40625 -14.484375 C 174.46875 -30.972656 142.5 -53.28125 115.5 -81.40625 C 88.507812 -109.539062 67.195312 -142.21875 51.5625 -179.4375 C 35.9375 -216.664062 28.125 -256.304688 28.125 -298.359375 C 28.125 -339.847656 35.796875 -379.347656 51.140625 -416.859375 C 66.492188 -454.367188 87.804688 -487.1875 115.078125 -515.3125 C 142.359375 -543.445312 174.46875 -565.753906 211.40625 -582.234375 C 248.351562 -598.710938 288.140625 -606.953125 330.765625 -606.953125 C 374.515625 -606.953125 415.003906 -598.566406 452.234375 -581.796875 C 489.460938 -565.035156 521.570312 -542.445312 548.5625 -514.03125 C 575.5625 -485.625 596.734375 -452.804688 612.078125 -415.578125 C 627.421875 -378.347656 635.09375 -339.273438 635.09375 -298.359375 Z M 330.765625 -22.171875 C 367.128906 -22.171875 401.507812 -29.414062 433.90625 -43.90625 C 466.300781 -58.394531 494.71875 -78.140625 519.15625 -103.140625 C 543.59375 -128.148438 562.769531 -157.421875 576.6875 -190.953125 C 590.613281 -224.484375 597.578125 -260.285156 597.578125 -298.359375 C 597.578125 -335.304688 590.753906 -370.398438 577.109375 -403.640625 C 563.472656 -436.890625 544.722656 -466.160156 520.859375 -491.453125 C 496.992188 -516.742188 468.71875 -536.914062 436.03125 -551.96875 C 403.351562 -567.03125 367.976562 -574.5625 329.90625 -574.5625 C 292.96875 -574.5625 258.441406 -567.316406 226.328125 -552.828125 C 194.222656 -538.335938 166.234375 -518.585938 142.359375 -493.578125 C 118.492188 -468.578125 99.738281 -439.3125 86.09375 -405.78125 C 72.457031 -372.25 65.640625 -336.441406 65.640625 -298.359375 C 65.640625 -261.421875 72.316406 -226.1875 85.671875 -192.65625 C 99.023438 -159.125 117.492188 -129.710938 141.078125 -104.421875 C 164.671875 -79.140625 192.660156 -59.109375 225.046875 -44.328125 C 257.441406 -29.554688 292.679688 -22.171875 330.765625 -22.171875 Z M 330.765625 -22.171875 "/></g></g></g></g></g></g></g></g></svg>